<svg width="32" height="13" viewBox="0 0 32 13" fill="none" xmlns="http://www.w3.org/2000/svg">
<path d="M1.5 5.75C1.08579 5.75 0.75 6.08579 0.75 6.5C0.75 6.91421 1.08579 7.25 1.5 7.25V5.75ZM31.0303 7.03033C31.3232 6.73744 31.3232 6.26256 31.0303 5.96967L26.2574 1.1967C25.9645 0.903806 25.4896 0.903806 25.1967 1.1967C24.9038 1.48959 24.9038 1.96447 25.1967 2.25736L29.4393 6.5L25.1967 10.7426C24.9038 11.0355 24.9038 11.5104 25.1967 11.8033C25.4896 12.0962 25.9645 12.0962 26.2574 11.8033L31.0303 7.03033ZM1.5 7.25H30.5V5.75H1.5V7.25Z" fill="#000015"/>
</svg>
