<svg width="50" height="50" viewBox="0 0 50 50" fill="none" xmlns="http://www.w3.org/2000/svg">
<path d="M23.5096 3.74783C24.3045 2.85983 25.6948 2.85983 26.4898 3.74783L29.0785 6.63946C29.4836 7.09203 30.0725 7.33595 30.679 7.30242L34.5541 7.08819C35.7442 7.0224 36.7273 8.00549 36.6615 9.19554L36.4472 13.0707C36.4137 13.6772 36.6576 14.2661 37.1102 14.6712L40.0018 17.2599C40.8898 18.0548 40.8898 19.4451 40.0018 20.2401L37.1102 22.8288C36.6576 23.2339 36.4137 23.8228 36.4472 24.4293L36.6615 28.3044C36.7273 29.4945 35.7442 30.4776 34.5541 30.4118L30.679 30.1975C30.0725 30.164 29.4836 30.4079 29.0785 30.8605L26.4898 33.7521C25.6948 34.6401 24.3045 34.6401 23.5096 33.7521L20.9209 30.8605C20.5157 30.4079 19.9269 30.164 19.3204 30.1975L15.4452 30.4118C14.2552 30.4776 13.2721 29.4945 13.3379 28.3044L13.5521 24.4293C13.5856 23.8228 13.3417 23.2339 12.8892 22.8288L9.99753 20.2401C9.10952 19.4451 9.10952 18.0548 9.99753 17.2599L12.8892 14.6712C13.3417 14.2661 13.5856 13.6772 13.5521 13.0707L13.3379 9.19554C13.2721 8.00549 14.2552 7.0224 15.4452 7.08819L19.3204 7.30242C19.9269 7.33595 20.5157 7.09203 20.9209 6.63946L23.5096 3.74783Z" stroke="white" stroke-width="2"/>
<path d="M31.25 16.6667L23.75 22.9167L18.75 18.75" stroke="white" stroke-width="2" stroke-linecap="round" stroke-linejoin="round"/>
<path d="M16.6675 31.266L16.667 43.75L25.0003 38.5417L33.3337 43.75L33.3341 31.25" stroke="white" stroke-width="2" stroke-linecap="round" stroke-linejoin="round"/>
</svg>
