<svg width="50" height="50" viewBox="0 0 50 50" fill="none" xmlns="http://www.w3.org/2000/svg">
<path d="M20.8337 35.4166C20.8337 36.511 20.6181 37.5946 20.1993 38.6057C19.7805 39.6167 19.1667 40.5354 18.3929 41.3092C17.6191 42.083 16.7004 42.6969 15.6894 43.1156C14.6783 43.5344 13.5947 43.75 12.5003 43.75C11.406 43.75 10.3223 43.5344 9.3113 43.1156C8.30025 42.6969 7.38159 42.083 6.60777 41.3092C5.83395 40.5354 5.22012 39.6167 4.80133 38.6057C4.38254 37.5946 4.16699 36.511 4.16699 35.4166L12.5003 35.4166H20.8337Z" stroke="white" stroke-width="2" stroke-linecap="round" stroke-linejoin="round"/>
<path d="M4.16699 35.4166L12.5003 14.5833L20.8337 35.4166" stroke="white" stroke-width="2" stroke-linecap="round" stroke-linejoin="round"/>
<path d="M29.167 31.25L37.5003 10.4167L45.8337 31.25" stroke="white" stroke-width="2" stroke-linecap="round" stroke-linejoin="round"/>
<path d="M12.5 14.5834L37.5 10.4167" stroke="white" stroke-width="2" stroke-linecap="round" stroke-linejoin="round"/>
<path d="M45.8337 31.25C45.8337 32.3444 45.6181 33.428 45.1993 34.439C44.7805 35.4501 44.1667 36.3688 43.3929 37.1426C42.6191 37.9164 41.7004 38.5302 40.6894 38.949C39.6783 39.3678 38.5947 39.5834 37.5003 39.5834C36.406 39.5834 35.3223 39.3678 34.3113 38.949C33.3002 38.5302 32.3816 37.9164 31.6078 37.1426C30.8339 36.3688 30.2201 35.4501 29.8013 34.439C29.3825 33.428 29.167 32.3444 29.167 31.25L37.5003 31.25H45.8337Z" stroke="white" stroke-width="2" stroke-linecap="round" stroke-linejoin="round"/>
</svg>
