<svg width="50" height="50" viewBox="0 0 50 50" fill="none" xmlns="http://www.w3.org/2000/svg">
<path d="M30.6979 18.2157L25.8663 7.84082C25.5253 7.10864 24.4747 7.10864 24.1337 7.84082L19.3021 18.2157C19.1631 18.5141 18.8776 18.7195 18.5481 18.7582L7.09285 20.1035C6.28442 20.1984 5.95976 21.1881 6.55745 21.7355L15.0266 29.4928C15.2702 29.7159 15.3793 30.0483 15.3146 30.3706L13.0665 41.5769C12.9078 42.3677 13.7578 42.9794 14.4682 42.5856L24.534 37.0049C24.8235 36.8444 25.1765 36.8444 25.466 37.0049L35.5318 42.5856C36.2422 42.9794 37.0922 42.3677 36.9335 41.5769L34.6854 30.3706C34.6207 30.0483 34.7298 29.7159 34.9734 29.4928L43.4426 21.7355C44.0402 21.1881 43.7156 20.1984 42.9071 20.1035L31.4519 18.7582C31.1224 18.7195 30.8369 18.5141 30.6979 18.2157Z" stroke="white" stroke-width="2" stroke-linecap="round" stroke-linejoin="round"/>
</svg>
