<svg width="40" height="41" viewBox="0 0 40 41" fill="none" xmlns="http://www.w3.org/2000/svg">
<path d="M20.0003 8C11.667 8 4.55033 13.1833 1.66699 20.5C4.55033 27.8167 11.667 33 20.0003 33C28.3337 33 35.4503 27.8167 38.3337 20.5C35.4503 13.1833 28.3337 8 20.0003 8ZM20.0003 28.8333C15.4003 28.8333 11.667 25.1 11.667 20.5C11.667 15.9 15.4003 12.1667 20.0003 12.1667C24.6003 12.1667 28.3337 15.9 28.3337 20.5C28.3337 25.1 24.6003 28.8333 20.0003 28.8333ZM20.0003 15.5C17.2337 15.5 15.0003 17.7333 15.0003 20.5C15.0003 23.2667 17.2337 25.5 20.0003 25.5C22.767 25.5 25.0003 23.2667 25.0003 20.5C25.0003 17.7333 22.767 15.5 20.0003 15.5Z" fill="#36456F"/>
</svg>
