<?xml version="1.0" encoding="UTF-8"?>
<!DOCTYPE svg PUBLIC "-//W3C//DTD SVG 1.1//EN" "http://www.w3.org/Graphics/SVG/1.1/DTD/svg11.dtd">
<!-- Creator: CorelDRAW -->
<svg xmlns="http://www.w3.org/2000/svg" xml:space="preserve" width="297mm" height="210mm" version="1.1" style="shape-rendering:geometricPrecision; text-rendering:geometricPrecision; image-rendering:optimizeQuality; fill-rule:evenodd; clip-rule:evenodd"
viewBox="0 0 29700 21000"
 xmlns:xlink="http://www.w3.org/1999/xlink"
 xmlns:xodm="http://www.corel.com/coreldraw/odm/2003">
 <defs>
  <style type="text/css">
   <![CDATA[
    .fil1 {fill:#22407C}
    .fil0 {fill:#B71C48}
   ]]>
  </style>
 </defs>
 <g id="Слой_x0020_1">
  <metadata id="CorelCorpID_0Corel-Layer"/>
  <g id="_2260765422224">
   <path fill="#22407C" d="M15089.05 9064.45l-173.88 178.7c-7.19,6.1 -11.49,8.72 -19.73,15.6l-70.91 68.73c-45.4,47.66 -56.71,78.75 -106.3,77.37 12.79,37.7 -46.71,75.3 -108.31,136.81 -47.37,47.27 -85.85,85.98 -133.21,133.46l-544.43 544.36c-81.26,81.82 -190,203.39 -273.16,270.39 31.8,60.78 688.17,700.37 794.01,807 47.67,47.99 85.27,86.37 133.03,134.34 41.46,41.65 107.24,98 139.72,142.87l270.42 269.05c27.77,26.84 76.51,56.51 87.45,96 44.58,21.12 226.32,215.07 273.7,261.12 108.78,105.69 747.79,766.1 804.91,795.3 49.86,-34.92 106.91,-101.99 153.55,-148.58l1720.85 -1720.66c106.77,-106.8 205.27,-205.29 312.46,-312.66 100.76,-100.89 221.6,-209.52 310.6,-313.56l-2184.62 -2186.35c-56.04,-56.1 -274.71,-290 -327.33,-315.41l-1058.82 1066.12zm1436.61 1423.65c29.94,55 311.59,319.55 354.27,363.37 33.42,34.27 314.57,327.95 359.94,346.76 119.04,-115.51 230.96,-228.49 347.27,-347.55 63.32,-64.82 320.32,-302.86 349.24,-358.85 -117.91,-118.09 -233.56,-226.55 -349.14,-347.41l-358.98 -351.38 -702.6 695.06zm-1072.01 1095.62c48.04,32.7 128.18,123.5 175.8,170.91 81.96,81.61 476.6,488.73 532.91,523.09l709.49 -705.73c-39.99,-74.35 -638.98,-621.29 -693.81,-712.31 -45.09,21.83 -706.12,685.15 -724.39,724.04zm3.05 -2154.87l705.66 699.14 704.59 -700.69 -703.96 -707.71c-47.5,21.12 -302.57,289.31 -359.77,347.23 -61.03,61.76 -326.38,307.59 -346.52,362.03zm-1077.29 1061.38c19.49,46.46 429.61,445.02 520.21,534.44 50.98,50.32 131.25,141.5 185.25,177.64 50.72,-29.79 613.83,-610.74 713.17,-707.18 -34.98,-49.36 -677.9,-687.98 -713.69,-708.21 -106.93,116.76 -236.89,236.25 -352.78,351.53 -119.78,119.11 -233.23,235.39 -352.16,351.78z"/>
   <path fill="#B71C48" d="M15083.75 11939.13c-10.94,-39.49 -59.68,-69.16 -87.45,-96l-270.42 -269.05c-18.55,33.19 -665.04,682.19 -706.92,703.52l-1340.7 -1337.07c-146.41,-148.54 -299.53,-289.94 -437.97,-440.9l1778.67 -1781.45c56.37,28.91 590.23,587.19 699.27,686.67 49.59,1.38 60.9,-29.71 106.3,-77.37l70.91 -68.73c8.24,-6.88 12.54,-9.5 19.73,-15.6l173.88 -178.7c-66.15,-94.34 -528.97,-504.59 -561.58,-580.32l488.26 -483.08c-25.34,-54.84 -183.12,-194.61 -237.38,-249.67 -69.42,-70.5 -195.14,-180.38 -247.22,-251.38 -81.71,39.94 -437.01,456.71 -512.17,488.46l-473.43 -473.62c-42.1,23.08 -146.47,131.19 -192.09,179.49 -54.3,57.49 -289.9,272.43 -313.55,318.1l236.5 244.24c24.64,25.59 39.83,34.69 60,55.95l174.36 186.42 -486.6 490.63 -64.59 -56.65c-26.31,-24.98 -31.95,-27.81 -58.44,-57.54l-300.23 -302.13c-25.17,-25.37 -44.82,-38.43 -64.92,-56.88l-499.82 487.16c22.88,61.51 417.9,430.56 475.16,491.81 -24.24,38.69 -461.53,475.83 -498.69,496.67 -54.84,-62.33 -443.76,-456.88 -490.02,-476.44 -18.55,37.86 -72.48,77.91 -115.57,125.16 -91.78,100.61 -269.07,256.5 -365.15,364.38 18.35,48.8 404.75,411.92 471.83,484.84 -17.56,49.49 -407.04,424.25 -473.52,488.39 17.98,37.86 468.39,484.33 499.4,499.61l474.96 -474.81 500.48 493.01c-42.53,44.15 -78.12,77.68 -118.98,119.05 -43.5,44.03 -75.9,83.91 -117.77,125.06 -54.59,53.63 -207.96,193.84 -239.46,246.05l495.15 495.73 471.98 -476.9c61.46,20.79 466.5,443.98 505.74,490.95 -20.87,40.27 -191.44,198.93 -234.89,242.59 -53.28,53.51 -208.17,195.55 -238.78,244.88l245.32 248.39c49.03,48.98 214.14,229.14 263.28,251.89l471.71 -476.82c45.85,26.85 427.04,421.16 500.32,492.88 58.24,-49.39 473.39,-459.33 499.04,-505.62l-488.39 -486.95c29.76,-63.09 458.28,-451.68 554.45,-568.3z"/>
  </g>
 </g>
</svg>
