<svg width="310" height="82" viewBox="0 0 310 82" fill="none" xmlns="http://www.w3.org/2000/svg">
<g clip-path="url(#clip0_392_6127)">
<path fill-rule="evenodd" clip-rule="evenodd" d="M54.9383 21.6212L52.5847 24.0473C52.4872 24.1301 52.4291 24.1658 52.3174 24.2591L51.3577 25.1921C50.743 25.8392 50.59 26.2614 49.9187 26.2426C50.0919 26.7544 49.2865 27.2651 48.4525 28.1C47.8113 28.7416 47.2905 29.2672 46.6493 29.9119L39.2797 37.3024C38.1798 38.4134 36.7077 40.0636 35.582 40.9735C36.0127 41.7985 44.8975 50.482 46.3303 51.9297C46.9752 52.5812 47.4843 53.1022 48.1308 53.7534C48.6923 54.319 49.5826 55.0838 50.0222 55.6933L53.6826 59.3459C54.0588 59.7102 54.7183 60.1132 54.8665 60.6492C55.47 60.936 57.9302 63.5692 58.5715 64.1944C60.0438 65.6294 68.6938 74.5955 69.4671 74.9917C70.1419 74.5178 70.9145 73.6073 71.5457 72.9747L94.8399 49.6139C96.2849 48.164 97.6185 46.827 99.0694 45.3692C100.433 43.9993 102.069 42.5246 103.274 41.112L73.7018 11.4293C72.9433 10.6676 69.9833 7.492 69.2709 7.14722L54.9383 21.6212ZM74.385 40.9495C74.7903 41.6962 78.6026 45.2877 79.1806 45.8825C79.6327 46.3479 83.4386 50.3351 84.0526 50.5906C85.6641 49.0221 87.1792 47.4883 88.7535 45.872C89.6107 44.992 93.0896 41.7601 93.481 41C91.885 39.3968 90.3195 37.9242 88.755 36.2834L83.8957 31.5128L74.385 40.9495ZM59.8736 55.8241C60.5239 56.2678 61.6087 57.5007 62.2534 58.1444C63.3628 59.2523 68.7049 64.7797 69.4671 65.246L79.0711 55.6646C78.5297 54.6552 70.4217 47.2299 69.6794 45.9941C69.0691 46.2904 60.1209 55.2961 59.8736 55.8241ZM59.9149 26.5683L69.4671 36.0603L79.0047 26.5473L69.4757 16.9393C68.8327 17.226 65.38 20.867 64.6054 21.6533C63.7794 22.4917 60.1876 25.8293 59.9149 26.5683ZM45.3323 40.9784C45.5961 41.609 51.1475 47.0202 52.374 48.2341C53.0641 48.9172 54.1506 50.1553 54.8816 50.6456C55.5682 50.2413 63.1906 42.354 64.5354 41.0449C64.0621 40.3747 55.359 31.7046 54.8747 31.4297C53.4272 33.0148 51.6681 34.6374 50.0991 36.2023C48.4779 37.8194 46.9421 39.3981 45.3323 40.9784Z" fill="#B71C48"/>
<path fill-rule="evenodd" clip-rule="evenodd" d="M54.8664 60.6492C54.7182 60.1133 54.0586 59.7102 53.6825 59.3459L50.0221 55.6934C49.771 56.1439 41.0196 64.955 40.4531 65.2446L22.3046 47.0917C20.3226 45.075 18.25 43.1553 16.3761 41.1059L40.4531 16.9199C41.216 17.3127 48.4424 24.892 49.9186 26.2426C50.5899 26.2615 50.7429 25.8392 51.3575 25.1921L52.3172 24.2591C52.4289 24.1658 52.487 24.1301 52.5846 24.0473L54.9382 21.6212C54.0429 20.3404 47.7779 14.7707 47.3364 13.7424L53.9458 7.18406C53.6027 6.43944 51.4668 4.5418 50.7324 3.79412C49.7925 2.83724 48.0909 1.34541 47.3858 0.381592C46.2798 0.923793 41.4704 6.58196 40.4531 7.0131L34.0444 0.582891C33.4745 0.896202 32.0616 2.36396 31.4441 3.0198C30.7091 3.80026 27.5199 6.71852 27.1998 7.33852L30.401 10.6544C30.7347 11.0019 30.9404 11.1254 31.2135 11.4142L33.5735 13.945L26.9868 20.6059L26.1123 19.8367C25.7563 19.4976 25.68 19.4592 25.3214 19.0557L21.2573 14.9539C20.9166 14.6094 20.6504 14.432 20.3786 14.1815L13.6126 20.7956C13.9222 21.6304 19.2697 26.6411 20.0446 27.4724C19.7166 27.9978 13.7974 33.9327 13.2943 34.2156C12.5518 33.3692 7.28712 28.0128 6.6609 27.7472C6.40999 28.2613 5.67996 28.8049 5.09654 29.4464C3.85424 30.8123 1.45444 32.9287 0.153713 34.3935C0.402206 35.0561 5.63264 39.9858 6.54067 40.976C6.30296 41.6476 1.03084 46.7358 0.130859 47.6065C0.374364 48.1205 6.47147 54.182 6.89104 54.3894L13.3203 47.9432L20.0952 54.6365C19.5191 55.2359 19.0375 55.6912 18.4845 56.2527C17.8956 56.8505 17.457 57.3921 16.8903 57.9506C16.1514 58.6788 14.0753 60.5824 13.649 61.2911L20.3515 68.0214L26.7403 61.5468C27.5723 61.829 33.0551 67.5745 33.5864 68.2122C33.3036 68.7591 30.9949 70.9131 30.4067 71.5056C29.6853 72.2323 27.5888 74.1606 27.1745 74.8305L30.4954 78.2025C31.1591 78.8677 33.3939 81.3135 34.0591 81.6223L40.4446 75.1488C41.065 75.5133 46.225 80.8667 47.2168 81.8404C48.0053 81.1697 53.6249 75.6042 53.9722 74.9759L47.3612 68.3648C47.7639 67.5081 53.5645 62.2325 54.8664 60.6492Z" fill="#22407C"/>
<path fill-rule="evenodd" clip-rule="evenodd" d="M133.586 33.0939H136.422C140.75 33.0939 142.897 30.3904 142.897 27.4472C142.897 25.3937 141.512 23.6484 139.296 23.0325C140.923 22.3481 142.204 20.9105 142.204 19.0967C142.204 16.7697 140.577 14.1345 136.665 14.1345H133.586H131.6H129.043V33.0951H133.586V33.0939ZM133.586 18.0358V21.4582H135.834C136.768 21.4582 137.703 20.9105 137.703 19.747C137.703 18.994 137.288 18.0358 135.834 18.0358H133.586ZM133.586 25.3596V29.1925H136.111C137.98 29.1925 138.396 28.029 138.396 27.276C138.396 26.7625 138.188 25.3596 136.111 25.3596H133.586Z" fill="#B71C48"/>
<path fill-rule="evenodd" clip-rule="evenodd" d="M156.469 14.1555H156.45H151.926H151.907L144.455 33.1161H148.998L150.818 28.4861H157.558L159.378 33.1161H163.921L156.469 14.1555ZM154.188 19.9112L156.056 24.6646H152.32L154.188 19.9112Z" fill="#B71C48"/>
<path fill-rule="evenodd" clip-rule="evenodd" d="M179.481 14.1873H184.024V33.1478H179.481V25.1055H170.892V33.1478H166.349V14.1873H170.892V21.284H179.481V14.1873Z" fill="#B71C48"/>
<path fill-rule="evenodd" clip-rule="evenodd" d="M197.743 13.9351C203.247 13.9351 207.708 18.278 207.708 23.6359C207.708 28.9937 203.247 33.3366 197.743 33.3366C192.239 33.3366 187.777 28.9937 187.777 23.6359C187.777 18.278 192.239 13.9351 197.743 13.9351ZM197.743 17.838C200.576 17.838 202.872 20.4337 202.872 23.6359C202.872 26.8379 200.576 29.4339 197.743 29.4339C194.91 29.4339 192.613 26.8379 192.613 23.6359C192.613 20.4337 194.91 17.838 197.743 17.838Z" fill="#B71C48"/>
<path fill-rule="evenodd" clip-rule="evenodd" d="M216.411 33.1467H219.247C223.575 33.1467 225.722 30.4431 225.722 27.5C225.722 25.4464 224.337 23.7012 222.121 23.0852C223.748 22.4008 225.029 20.9632 225.029 19.1494C225.029 16.8224 223.402 14.1873 219.49 14.1873H216.411H214.425H211.868V33.1478H216.411V33.1467ZM216.411 18.0886V21.5109H218.659C219.594 21.5109 220.528 20.9632 220.528 19.7997C220.528 19.0467 220.113 18.0886 218.659 18.0886H216.411ZM216.411 25.4124V29.2452H218.936C220.805 29.2452 221.221 28.0817 221.221 27.3287C221.221 26.8153 221.013 25.4124 218.936 25.4124H216.411Z" fill="#B71C48"/>
<path fill-rule="evenodd" clip-rule="evenodd" d="M237.99 33.3432C232.674 33.1367 228.429 28.8769 228.429 23.6509C228.429 18.3593 232.781 14.058 238.191 13.9527C240.481 13.9113 242.592 13.9892 244.549 14.3379V19.4369C243.04 18.3724 240.848 17.7365 238.394 17.8461V17.8529C238.309 17.8529 238.224 17.855 238.141 17.8599L238.13 17.8603L238.124 17.861C235.417 18.0195 233.265 20.5512 233.265 23.6509C233.265 26.8531 235.561 29.449 238.394 29.449C239.654 29.4026 241.293 29.469 244.293 27.5827L245.758 31.2573C244.217 32.7577 241.681 33.6087 237.99 33.3432Z" fill="#B71C48"/>
<path fill-rule="evenodd" clip-rule="evenodd" d="M249.1 14.1555H253.643V21.2968H256.271L259.408 15.3728C260.032 14.5968 260.698 14.1997 261.405 14.1555H261.677H264.975H265.005L264.975 14.211V17.9958C263.683 17.9814 262.874 18.2305 262.569 18.7554L262.533 18.8245L260.061 23.4937H260.058L266.587 33.1161H261.394L255.968 25.1185H253.643V33.1161H249.1V14.1555Z" fill="#B71C48"/>
<path fill-rule="evenodd" clip-rule="evenodd" d="M282.024 14.1555H282.051H286.567H286.595L286.567 14.1938V33.1161H282.024V20.4677L272.864 33.1161H268.321V14.1555H272.864V26.8423L282.024 14.1938V14.1555Z" fill="#B71C48"/>
<path fill-rule="evenodd" clip-rule="evenodd" d="M305.17 14.1555H305.198H309.714H309.741L309.714 14.1938V33.1161H305.17V20.4677L296.011 33.1161H291.468V14.1555H296.011V26.8423L305.17 14.1938V14.1555Z" fill="#B71C48"/>
<path fill-rule="evenodd" clip-rule="evenodd" d="M307.127 8.60718C306.095 11.8153 303.564 14.0821 300.604 14.0821C297.645 14.0821 295.114 11.8153 294.082 8.60718H297.767C298.429 9.81232 299.454 10.5857 300.604 10.5857C301.755 10.5857 302.78 9.81232 303.442 8.60718H307.127Z" fill="#B71C48"/>
<path fill-rule="evenodd" clip-rule="evenodd" d="M119.689 14.1555H119.716H124.232H124.26L124.232 14.1938V33.1161H119.689V20.4677L110.53 33.1161H105.986V14.1555H110.53V26.8423L119.689 14.1938V14.1555Z" fill="#B71C48"/>
<path d="M106.053 40.5901H112.499V42.2477H107.98V50.3989H106.053V40.5901ZM112.516 40.5901H114.68L116.895 45.668L118.791 40.5901H120.796L117.578 48.0448C117.228 48.8532 116.871 49.4674 116.508 49.8897C116.145 50.3121 115.677 50.5223 115.101 50.5223C114.534 50.5223 114.091 50.4834 113.772 50.4081V48.9331C114.045 48.9513 114.29 48.9605 114.51 48.9605C114.953 48.9605 115.272 48.8761 115.464 48.7092C115.655 48.5404 115.841 48.1774 116.016 47.6226L112.516 40.5901ZM121.733 50.3989V40.5901H124.619L126.325 47.28L128.01 40.5901H130.903V50.3989H129.122L129.116 42.6769L127.24 50.3989H125.388L123.521 42.6769L123.514 50.3989H121.733ZM141.402 50.3989H139.327L138.505 48.1657H134.689L133.898 50.3989H131.86L135.554 40.5901H137.59L141.402 50.3989ZM137.88 46.5083L136.558 42.8779L135.273 46.5083H137.88ZM142.428 50.3989V40.5901H144.355V44.4535H148.103V40.5901H150.03V50.3989H148.103V46.111H144.355V50.3989H142.428ZM152.052 40.5901H153.846V47.1201L157.7 40.5901H159.614V50.3989H157.82V43.9739L153.966 50.3989H152.052V40.5901ZM163.719 50.3989V42.2477H160.901V40.5901H168.45V42.2477H165.646V50.3989H163.719ZM177.432 50.3989H175.356L174.534 48.1657H170.718L169.927 50.3989H167.889L171.584 40.5901H173.62L177.432 50.3989ZM173.91 46.5083L172.587 42.8779L171.303 46.5083H173.91ZM178.457 50.3989V40.5901H181.538C182.705 40.5901 183.465 40.6379 183.82 40.736C184.365 40.8847 184.821 41.2043 185.188 41.6973C185.556 42.1905 185.74 42.8277 185.74 43.6084C185.74 44.2113 185.634 44.7159 185.423 45.1269C185.211 45.5377 184.943 45.8597 184.617 46.0949C184.291 46.3278 183.959 46.4833 183.622 46.5585C183.164 46.6521 182.502 46.7001 181.633 46.7001H180.384V50.3989H178.457ZM180.384 42.2477V45.0425H181.432C182.187 45.0425 182.69 44.9899 182.945 44.8872C183.199 44.7844 183.399 44.6247 183.543 44.4031C183.687 44.1837 183.76 43.9305 183.76 43.6381C183.76 43.2796 183.658 42.9852 183.456 42.7521C183.253 42.5193 182.998 42.3734 182.686 42.3139C182.457 42.2704 181.999 42.2477 181.308 42.2477H180.384ZM187.321 50.3989V40.5901H189.249V44.4535H192.996V40.5901H194.924V50.3989H192.996V46.111H189.249V50.3989H187.321ZM196.52 45.5538C196.52 44.5537 196.667 43.7134 196.957 43.0331C197.172 42.5331 197.468 42.0832 197.843 41.686C198.217 41.2887 198.627 40.9941 199.072 40.7999C199.666 40.5422 200.35 40.4119 201.126 40.4119C202.53 40.4119 203.651 40.8618 204.495 41.7591C205.336 42.6585 205.757 43.9075 205.757 45.5083C205.757 47.095 205.338 48.337 204.503 49.2322C203.668 50.1295 202.55 50.577 201.152 50.577C199.737 50.577 198.609 50.1316 197.774 49.2392C196.939 48.3486 196.52 47.1201 196.52 45.5538ZM198.501 45.4875C198.501 46.5995 198.751 47.4421 199.249 48.0174C199.748 48.5906 200.381 48.8782 201.148 48.8782C201.916 48.8782 202.545 48.593 203.039 48.0243C203.531 47.4534 203.777 46.5995 203.777 45.4602C203.777 44.3345 203.538 43.4943 203.057 42.9418C202.579 42.387 201.943 42.1105 201.148 42.1105C200.355 42.1105 199.714 42.3915 199.229 42.9508C198.744 43.5127 198.501 44.3574 198.501 45.4875ZM207.031 47.7822V45.9056H210.619V47.7822H207.031ZM213.822 50.3989V42.2477H211.004V40.5901H218.553V42.2477H215.749V50.3989H213.822ZM219.8 50.3989V40.5901H226.844V42.2477H221.727V44.4259H226.485V46.0836H221.727V48.7413H227.03V50.3989H219.8ZM227.701 50.3989L230.986 45.2844L228.007 40.5901H230.25L232.124 43.5103L233.998 40.5901H236.247L233.261 45.2869L236.539 50.3989H234.231L232.122 47.0766L230.011 50.3989H227.701ZM237.529 50.3989V40.5901H239.456V44.4535H243.204V40.5901H245.131V50.3989H243.204V46.111H239.456V50.3989H237.529ZM247.153 40.5901H248.947V47.1201L252.801 40.5901H254.715V50.3989H252.921V43.9739L249.067 50.3989H247.153V40.5901ZM256.521 40.5901H258.448V42.9303C258.448 43.6885 258.474 44.1907 258.53 44.4373C258.583 44.6862 258.745 44.9009 259.012 45.0835C259.278 45.266 259.673 45.3576 260.191 45.3576C260.601 45.3576 260.966 45.3119 261.287 45.2205C261.606 45.1293 261.883 44.9945 262.116 44.8165V40.5901H264.043V50.3989H262.116V46.4466C261.726 46.6247 261.343 46.7595 260.966 46.8507C260.59 46.942 260.22 46.9877 259.856 46.9877C258.908 46.9877 258.116 46.757 257.477 46.2959C256.84 45.8347 256.521 45.0355 256.521 43.8983V40.5901ZM266.019 50.3989V40.5901H273.062V42.2477H267.946V44.4259H272.704V46.0836H267.946V48.7413H273.249V50.3989H266.019ZM280.97 46.7824L282.831 47.3714C282.545 48.4513 282.069 49.2527 281.404 49.7778C280.74 50.3008 279.898 50.5634 278.877 50.5634C277.612 50.5634 276.573 50.1181 275.758 49.2275C274.945 48.337 274.538 47.1201 274.538 45.5743C274.538 43.9418 274.947 42.6725 275.765 41.7681C276.582 40.8639 277.659 40.4119 278.992 40.4119C280.157 40.4119 281.103 40.7681 281.829 41.4782C282.264 41.8982 282.587 42.5013 282.804 43.2888L280.904 43.7547C280.79 43.2478 280.556 42.8459 280.199 42.5515C279.84 42.2569 279.406 42.1105 278.897 42.1105C278.19 42.1105 277.617 42.371 277.178 42.8937C276.737 43.4143 276.518 44.2593 276.518 45.4284C276.518 46.6658 276.735 47.5494 277.167 48.0745C277.601 48.6019 278.164 48.8645 278.857 48.8645C279.369 48.8645 279.809 48.6979 280.177 48.3623C280.544 48.0266 280.81 47.5015 280.97 46.7824ZM284.507 40.5901H286.434V44.7684C286.862 44.7229 287.152 44.6107 287.303 44.4259C287.453 44.2433 287.688 43.7342 288.003 42.8985C288.399 41.8367 288.8 41.1746 289.201 40.9165C289.6 40.6584 290.24 40.5284 291.126 40.5284C291.17 40.5284 291.263 40.5262 291.405 40.5213V41.9875L291.132 41.9805C290.738 41.9805 290.45 42.0309 290.269 42.1313C290.087 42.2315 289.941 42.3847 289.828 42.59C289.715 42.7955 289.549 43.2181 289.329 43.8573C289.212 44.1974 289.086 44.4807 288.948 44.7091C288.813 44.9374 288.572 45.1521 288.226 45.3529C288.654 45.4762 289.006 45.7296 289.285 46.1086C289.564 46.4876 289.87 47.0219 290.202 47.7139L291.498 50.3989H289.239L288.098 47.8736C288.08 47.8372 288.042 47.7686 287.987 47.666C287.965 47.6314 287.885 47.4763 287.748 47.2045C287.504 46.7206 287.305 46.4194 287.15 46.2983C286.992 46.1772 286.755 46.1154 286.434 46.111V50.3989H284.507V40.5901ZM292.619 40.5901H294.413V47.1201L298.267 40.5901H300.181V50.3989H298.386V43.9739L294.532 50.3989H292.619V40.5901ZM302.172 40.5901H303.966V47.1201L307.82 40.5901H309.734V50.3989H307.94V43.9739L304.086 50.3989H302.172V40.5901ZM307.089 37.7542H307.98C307.929 38.3593 307.721 38.8365 307.36 39.1814C306.998 39.5259 306.531 39.6995 305.957 39.6995C305.381 39.6995 304.914 39.5259 304.553 39.1814C304.192 38.8365 303.984 38.3593 303.933 37.7542H304.823C304.854 38.0694 304.961 38.3089 305.147 38.471C305.333 38.6334 305.603 38.7131 305.957 38.7131C306.31 38.7131 306.58 38.6334 306.766 38.471C306.952 38.3089 307.058 38.0694 307.089 37.7542ZM105.986 58.5655H107.913V62.7438C108.341 62.6983 108.631 62.5863 108.782 62.4013C108.932 62.2187 109.167 61.7098 109.482 60.874C109.878 59.8121 110.279 59.15 110.68 58.8921C111.079 58.634 111.719 58.504 112.605 58.504C112.649 58.504 112.742 58.5016 112.884 58.4969V59.9629L112.611 59.9561C112.217 59.9561 111.929 60.0063 111.748 60.1069C111.566 60.2071 111.42 60.3602 111.307 60.5657C111.194 60.7711 111.028 61.1936 110.808 61.8328C110.691 62.1729 110.565 62.4563 110.427 62.6846C110.292 62.913 110.051 63.1277 109.706 63.3283C110.133 63.4518 110.485 63.7051 110.764 64.0841C111.043 64.4632 111.349 64.9975 111.681 65.6894L112.977 68.3744H110.718L109.577 65.849C109.559 65.8127 109.521 65.7441 109.466 65.6414C109.444 65.607 109.364 65.4518 109.227 65.1801C108.983 64.696 108.784 64.3948 108.629 64.2737C108.472 64.1528 108.234 64.091 107.913 64.0865V68.3744H105.986V58.5655ZM113.672 63.5293C113.672 62.5291 113.819 61.6889 114.109 61.0086C114.324 60.5085 114.62 60.0586 114.995 59.6616C115.369 59.2643 115.779 58.9695 116.224 58.7755C116.818 58.5176 117.502 58.3875 118.277 58.3875C119.682 58.3875 120.803 58.8373 121.647 59.7347C122.488 60.6341 122.909 61.8831 122.909 63.4837C122.909 65.0706 122.49 66.3126 121.655 67.2078C120.82 68.1051 119.702 68.5526 118.304 68.5526C116.889 68.5526 115.761 68.1072 114.926 67.2146C114.091 66.3241 113.672 65.0957 113.672 63.5293ZM115.653 63.4631C115.653 64.5749 115.903 65.4175 116.401 65.993C116.9 66.5662 117.533 66.8536 118.3 66.8536C119.068 66.8536 119.698 66.5684 120.191 65.9998C120.683 65.429 120.929 64.5749 120.929 63.4356C120.929 62.3101 120.689 61.4697 120.209 60.9174C119.731 60.3626 119.095 60.0861 118.3 60.0861C117.507 60.0861 116.866 60.3669 116.381 60.9263C115.896 61.4881 115.653 62.3328 115.653 63.4631ZM124.763 58.5655H131.428V68.3744H129.501V60.2231H126.643V64.4106C126.643 65.6093 126.604 66.4475 126.526 66.92C126.449 67.3947 126.261 67.7669 125.959 68.032C125.658 68.2969 125.188 68.4291 124.548 68.4291C124.322 68.4291 123.915 68.4065 123.321 68.3631V66.8264L123.751 66.8332C124.152 66.8332 124.424 66.7784 124.561 66.6666C124.701 66.5545 124.77 66.2808 124.77 65.8445L124.763 64.1596V58.5655ZM134.089 58.5655H140.753V68.3744H138.826V60.2231H135.969V64.4106C135.969 65.6093 135.929 66.4475 135.851 66.92C135.774 67.3947 135.586 67.7669 135.285 68.032C134.983 68.2969 134.514 68.4291 133.873 68.4291C133.647 68.4291 133.24 68.4065 132.646 68.3631V66.8264L133.076 66.8332C133.477 66.8332 133.749 66.7784 133.887 66.6666C134.026 66.5545 134.095 66.2808 134.095 65.8445L134.089 64.1596V58.5655ZM142.729 68.3744V58.5655H149.773V60.2231H144.656V62.4013H149.414V64.0592H144.656V66.7169H149.959V68.3744H142.729ZM152.364 58.5655H158.93V66.7169H159.767V70.5115H158.159V68.3744H152.191V70.5115H150.584V66.7169H151.394C151.788 65.8787 152.05 64.9062 152.176 63.8011C152.303 62.6936 152.364 61.2941 152.364 59.602V58.5655ZM154.199 60.2231C154.199 63.1916 153.933 65.356 153.401 66.7169H157.003V60.2231H154.199ZM167.028 58.5655V62.7438C167.349 62.7164 167.591 62.5934 167.754 62.3763C167.92 62.1572 168.146 61.6571 168.436 60.874C168.818 59.8533 169.207 59.2004 169.606 58.9194C170 58.6432 170.656 58.504 171.573 58.504C171.615 58.504 171.711 58.5016 171.852 58.4969V59.9629L171.573 59.9561C171.183 59.9561 170.898 60.0063 170.716 60.1069C170.534 60.2071 170.386 60.3602 170.273 60.5657C170.162 60.7711 169.994 61.1936 169.775 61.8328C169.657 62.1729 169.531 62.4563 169.394 62.6846C169.256 62.913 169.015 63.1277 168.669 63.3283C169.097 63.4561 169.451 63.7097 169.73 64.0865C170.009 64.4632 170.315 64.9975 170.647 65.6894L171.945 68.3744H169.686L168.538 65.8469C168.525 65.8104 168.49 65.742 168.428 65.6392C168.392 65.5728 168.315 65.42 168.195 65.178C167.954 64.7097 167.757 64.4106 167.601 64.2807C167.446 64.1504 167.256 64.0865 167.028 64.0865V68.3744H165.154V64.0865C164.935 64.0865 164.744 64.148 164.585 64.2737C164.425 64.3993 164.226 64.6984 163.989 65.1756C163.854 65.4429 163.774 65.598 163.75 65.6367C163.71 65.7031 163.672 65.7738 163.639 65.8445L162.496 68.3744H160.237L161.534 65.6894C161.853 65.0248 162.155 64.4974 162.438 64.107C162.722 63.7167 163.083 63.4561 163.519 63.3283C163.174 63.1277 162.932 62.913 162.795 62.6867C162.658 62.4631 162.529 62.1777 162.407 61.8328C162.192 61.2073 162.029 60.7895 161.918 60.5794C161.807 60.3694 161.661 60.2139 161.477 60.1113C161.293 60.0084 160.992 59.9561 160.576 59.9561C160.524 59.9561 160.443 59.9582 160.33 59.9629V58.4969C160.474 58.5016 160.567 58.504 160.609 58.504C161.539 58.504 162.202 58.6456 162.596 58.9261C162.985 59.2117 163.369 59.8625 163.745 60.874C164.04 61.6615 164.268 62.1616 164.43 62.3787C164.591 62.5955 164.833 62.7164 165.154 62.7438V58.5655H167.028ZM179.782 71.2513H178.533C177.866 70.2216 177.359 69.153 177.008 68.0412C176.661 66.9315 176.486 65.8582 176.486 64.8193C176.486 63.5317 176.701 62.3124 177.128 61.1614C177.503 60.1639 177.975 59.2438 178.546 58.4012H179.795C179.199 59.7507 178.787 60.9012 178.564 61.8465C178.34 62.794 178.227 63.7987 178.227 64.8605C178.227 65.5912 178.293 66.3402 178.426 67.1072C178.562 67.8722 178.743 68.6003 178.976 69.2923C179.129 69.7466 179.397 70.3998 179.782 71.2513ZM181.218 58.5655H183.012V65.0957L186.866 58.5655H188.78V68.3744H186.985V61.9493L183.131 68.3744H181.218V58.5655ZM190.837 58.5655H197.283V60.2231H192.764V68.3744H190.837V58.5655ZM200.417 68.3744V60.2231H197.6V58.5655H205.149V60.2231H202.344V68.3744H200.417ZM206.422 58.5655H208.349V62.7438C208.777 62.6983 209.067 62.5863 209.217 62.4013C209.368 62.2187 209.603 61.7098 209.917 60.874C210.314 59.8121 210.715 59.15 211.116 58.8921C211.514 58.634 212.155 58.504 213.041 58.504C213.085 58.504 213.178 58.5016 213.32 58.4969V59.9629L213.047 59.9561C212.653 59.9561 212.365 60.0063 212.183 60.1069C212.002 60.2071 211.856 60.3602 211.743 60.5657C211.629 60.7711 211.463 61.1936 211.244 61.8328C211.127 62.1729 211 62.4563 210.863 62.6846C210.728 62.913 210.487 63.1277 210.141 63.3283C210.569 63.4518 210.921 63.7051 211.2 64.0841C211.479 64.4632 211.785 64.9975 212.117 65.6894L213.412 68.3744H211.153L210.012 65.849C209.995 65.8127 209.957 65.7441 209.902 65.6414C209.88 65.607 209.8 65.4518 209.663 65.1801C209.419 64.696 209.219 64.3948 209.064 64.2737C208.907 64.1528 208.67 64.091 208.349 64.0865V68.3744H206.422V58.5655ZM213.975 71.2513C214.336 70.4568 214.589 69.8494 214.737 69.427C214.883 69.0025 215.021 68.5137 215.147 67.9611C215.271 67.4088 215.364 66.8834 215.426 66.388C215.486 65.8903 215.517 65.381 215.517 64.8605C215.517 63.7987 215.406 62.794 215.185 61.8465C214.963 60.9012 214.555 59.7507 213.962 58.4012H215.198C215.854 59.36 216.363 60.3762 216.726 61.4493C217.09 62.5246 217.271 63.6137 217.271 64.7189C217.271 65.6505 217.127 66.6482 216.841 67.7147C216.518 68.9087 215.982 70.087 215.238 71.2513H213.975Z" fill="#22407C"/>
</g>
<defs>
<clipPath id="clip0_392_6127">
<rect width="310" height="82" fill="white"/>
</clipPath>
</defs>
</svg>
